<svg width="24" height="25" viewBox="0 0 24 25" fill="none" xmlns="http://www.w3.org/2000/svg">
<path d="M20 12.2211V22.2211H4V12.2211" stroke="black" stroke-width="2" stroke-linecap="round" stroke-linejoin="round"/>
<path d="M22 7.22107H2V12.2211H22V7.22107Z" stroke="black" stroke-width="2" stroke-linecap="round" stroke-linejoin="round"/>
<path d="M12 22.2211V7.22107" stroke="black" stroke-width="2" stroke-linecap="round" stroke-linejoin="round"/>
<path d="M12 7.22107H16.5C17.163 7.22107 17.7989 6.95768 18.2678 6.48884C18.7366 6.02 19 5.38411 19 4.72107C19 4.05803 18.7366 3.42214 18.2678 2.9533C17.7989 2.48446 17.163 2.22107 16.5 2.22107C13 2.22107 12 7.22107 12 7.22107Z" stroke="black" stroke-width="2" stroke-linecap="round" stroke-linejoin="round"/>
<path d="M12 7.22107H7.5C6.83696 7.22107 6.20107 6.95768 5.73223 6.48884C5.26339 6.02 5 5.38411 5 4.72107C5 4.05803 5.26339 3.42214 5.73223 2.9533C6.20107 2.48446 6.83696 2.22107 7.5 2.22107C11 2.22107 12 7.22107 12 7.22107Z" stroke="black" stroke-width="2" stroke-linecap="round" stroke-linejoin="round"/>
</svg>
