<svg width="25" height="25" viewBox="0 0 25 25" fill="none" xmlns="http://www.w3.org/2000/svg">
<path d="M3.17627 18.7979V12.7979C3.17627 10.4109 4.12448 8.12172 5.81231 6.43389C7.50014 4.74606 9.78932 3.79785 12.1763 3.79785C14.5632 3.79785 16.8524 4.74606 18.5402 6.43389C20.2281 8.12172 21.1763 10.4109 21.1763 12.7979V18.7979" stroke="black" stroke-width="2" stroke-linecap="round" stroke-linejoin="round"/>
<path d="M21.1763 19.7979C21.1763 20.3283 20.9656 20.837 20.5905 21.2121C20.2154 21.5871 19.7067 21.7979 19.1763 21.7979H18.1763C17.6458 21.7979 17.1371 21.5871 16.7621 21.2121C16.387 20.837 16.1763 20.3283 16.1763 19.7979V16.7979C16.1763 16.2674 16.387 15.7587 16.7621 15.3836C17.1371 15.0086 17.6458 14.7979 18.1763 14.7979H21.1763V19.7979ZM3.17627 19.7979C3.17627 20.3283 3.38698 20.837 3.76206 21.2121C4.13713 21.5871 4.64584 21.7979 5.17627 21.7979H6.17627C6.7067 21.7979 7.21541 21.5871 7.59048 21.2121C7.96556 20.837 8.17627 20.3283 8.17627 19.7979V16.7979C8.17627 16.2674 7.96556 15.7587 7.59048 15.3836C7.21541 15.0086 6.7067 14.7979 6.17627 14.7979H3.17627V19.7979Z" stroke="black" stroke-width="2" stroke-linecap="round" stroke-linejoin="round"/>
</svg>
