<svg width="36" height="36" viewBox="0 0 36 36" fill="none" xmlns="http://www.w3.org/2000/svg">
<rect width="36" height="36" rx="8" fill="#5570F1" fill-opacity="0.12"/>
<path fill-rule="evenodd" clip-rule="evenodd" d="M22.3981 19.5743C22.9604 19.5743 23.4323 20.0383 23.3463 20.5936C22.8419 23.8603 20.0455 26.2857 16.6726 26.2857C12.9411 26.2857 9.9165 23.2611 9.9165 19.5304C9.9165 16.4567 12.2516 13.5936 14.8805 12.9462C15.4455 12.8067 16.0244 13.2041 16.0244 13.7857C16.0244 17.726 16.1569 18.7453 16.9051 19.2997C17.6533 19.8541 18.5332 19.5743 22.3981 19.5743Z" stroke="#5570F1" stroke-width="1.5" stroke-linecap="round" stroke-linejoin="round"/>
<path fill-rule="evenodd" clip-rule="evenodd" d="M26.0768 16.293C26.1215 13.7614 23.0119 9.68072 19.2224 9.75089C18.9277 9.75616 18.6917 10.0018 18.6785 10.2956C18.5829 12.3772 18.7119 15.0746 18.7838 16.2974C18.8057 16.6781 19.1049 16.9772 19.4847 16.9991C20.7417 17.0711 23.5373 17.1693 25.5891 16.8588C25.868 16.8167 26.0724 16.5746 26.0768 16.293Z" stroke="#5570F1" stroke-width="1.5" stroke-linecap="round" stroke-linejoin="round"/>
</svg>
