<svg width="29" height="27" viewBox="0 0 29 27" fill="none" xmlns="http://www.w3.org/2000/svg">
<path fill-rule="evenodd" clip-rule="evenodd" d="M24.7648 9.19418L24.031 8.02995C23.4103 7.04484 22.0345 6.705 20.9556 7.27025V7.27025C20.442 7.54686 19.8292 7.62534 19.2523 7.48838C18.6753 7.35142 18.1817 7.01026 17.8801 6.54014C17.6862 6.24132 17.5819 5.90097 17.578 5.55351V5.55351C17.5955 4.99643 17.3656 4.4566 16.9408 4.05699C16.5159 3.65738 15.9322 3.43202 15.3227 3.43225H13.8443C13.2471 3.43224 12.6746 3.64981 12.2533 4.03681C11.8321 4.42381 11.5969 4.94833 11.5998 5.49431V5.49431C11.5821 6.62158 10.5775 7.52689 9.34443 7.52677C8.9644 7.52316 8.59215 7.42786 8.26533 7.25051V7.25051C7.18641 6.68527 5.81067 7.02511 5.18988 8.01022L4.40213 9.19418C3.7821 10.1781 4.14873 11.4351 5.22225 12.0061V12.0061C5.92006 12.3744 6.34993 13.0552 6.34993 13.7919C6.34993 14.5286 5.92006 15.2093 5.22225 15.5777V15.5777C4.15009 16.1448 3.78306 17.3988 4.40213 18.3797V18.3797L5.14671 19.5538C5.43758 20.0337 5.9256 20.3878 6.50279 20.5378C7.07998 20.6877 7.69874 20.6212 8.22216 20.353V20.353C8.73671 20.0785 9.34988 20.0033 9.92537 20.1441C10.5009 20.2849 10.991 20.63 11.2868 21.1028C11.4808 21.4016 11.585 21.742 11.589 22.0895V22.0895C11.589 23.2283 12.5987 24.1515 13.8443 24.1515H15.3227C16.5641 24.1515 17.5721 23.2343 17.578 22.0993V22.0993C17.5751 21.5516 17.8118 21.0256 18.2354 20.6383C18.659 20.251 19.2343 20.0346 19.8333 20.0373C20.2124 20.0465 20.5832 20.1414 20.9124 20.3135V20.3135C21.9885 20.8804 23.3634 20.5452 23.9879 19.5637V19.5637L24.7648 18.3797C25.0656 17.9078 25.1481 17.3456 24.9942 16.8179C24.8403 16.2901 24.4625 15.8402 23.9447 15.5678V15.5678C23.4269 15.2954 23.0492 14.8455 22.8952 14.3178C22.7413 13.79 22.8239 13.2279 23.1246 12.7559C23.3202 12.4437 23.6033 12.1849 23.9447 12.0061V12.0061C25.0118 11.4354 25.3776 10.1857 24.7648 9.20404V9.20404V9.19418Z" stroke="#130F26" stroke-width="1.5" stroke-linecap="round" stroke-linejoin="round"/>
<ellipse cx="14.5888" cy="13.7919" rx="3.10782" ry="2.8415" stroke="#130F26" stroke-width="1.5" stroke-linecap="round" stroke-linejoin="round"/>
</svg>
