<svg width="29" height="27" viewBox="0 0 29 27" fill="none" xmlns="http://www.w3.org/2000/svg">
<path fill-rule="evenodd" clip-rule="evenodd" d="M22.5423 20.949C18.9393 24.2435 13.6042 24.9553 9.23823 23.1092C8.59371 22.872 8.06529 22.6802 7.56293 22.6802C6.16369 22.6878 4.42204 23.9283 3.51686 23.1016C2.61168 22.2739 3.96945 20.6803 3.96945 19.3932C3.96945 18.9339 3.76804 18.4593 3.50857 17.8689C1.48849 13.8777 2.26809 8.99815 5.87105 5.70466C10.4704 1.49788 17.9429 1.49788 22.5423 5.70358C27.15 9.91686 27.1417 16.7433 22.5423 20.949Z" stroke="#130F26" stroke-width="1.5" stroke-linecap="round" stroke-linejoin="round"/>
<path d="M18.8498 13.7736H18.8604" stroke="#130F26" stroke-width="2" stroke-linecap="round" stroke-linejoin="round"/>
<path d="M14.1237 13.7736H14.1343" stroke="#130F26" stroke-width="2" stroke-linecap="round" stroke-linejoin="round"/>
<path d="M9.39714 13.7736H9.40775" stroke="#130F26" stroke-width="2" stroke-linecap="round" stroke-linejoin="round"/>
</svg>
