<svg width="53" height="53" viewBox="0 0 53 53" fill="none" xmlns="http://www.w3.org/2000/svg">
<path fill-rule="evenodd" clip-rule="evenodd" d="M37.6048 30.7211C39.0733 30.7211 40.3059 31.9215 40.0814 33.3579C38.7641 41.8086 31.4603 48.0831 22.6513 48.0831C12.9053 48.0831 5.00586 40.2587 5.00586 30.6076C5.00586 22.6561 11.1046 15.2493 17.9707 13.5746C19.4462 13.2138 20.9582 14.2417 20.9582 15.7463C20.9582 25.9397 21.3042 28.5766 23.2584 30.0108C25.2127 31.4449 27.5106 30.7211 37.6048 30.7211Z" fill="#97A5EB" stroke="#97A5EB" stroke-width="1.5" stroke-linecap="round" stroke-linejoin="round"/>
<path fill-rule="evenodd" clip-rule="evenodd" d="M47.2131 22.2325C47.3299 15.6834 39.2082 5.12686 29.311 5.3084C28.5412 5.32202 27.9249 5.95741 27.8906 6.71761C27.6409 12.1025 27.9776 19.0805 28.1655 22.2438C28.2228 23.2287 29.004 24.0025 29.996 24.0592C33.2791 24.2453 40.5806 24.4995 45.9393 23.6962C46.6678 23.5872 47.2016 22.9609 47.2131 22.2325Z" fill="#FFCC91" stroke="#FFCC91" stroke-width="1.5" stroke-linecap="round" stroke-linejoin="round"/>
</svg>
