<svg width="29" height="27" viewBox="0 0 29 27" fill="none" xmlns="http://www.w3.org/2000/svg">
<path fill-rule="evenodd" clip-rule="evenodd" d="M11.5427 16.9303C15.8918 16.9303 19.6089 17.5328 19.6089 19.9398C19.6089 22.3467 15.9165 22.9665 11.5427 22.9665C7.19252 22.9665 3.47656 22.3694 3.47656 19.9613C3.47656 17.5533 7.16777 16.9303 11.5427 16.9303Z" stroke="#130F26" stroke-width="1.5" stroke-linecap="round" stroke-linejoin="round"/>
<path fill-rule="evenodd" clip-rule="evenodd" d="M11.5428 13.495C8.68747 13.495 6.37207 11.3791 6.37207 8.76844C6.37207 6.15778 8.68747 4.04187 11.5428 4.04187C14.397 4.04187 16.7124 6.15778 16.7124 8.76844C16.723 11.3694 14.4241 13.4853 11.5794 13.495H11.5428Z" stroke="#130F26" stroke-width="1.5" stroke-linecap="round" stroke-linejoin="round"/>
<path d="M19.6675 12.2682C21.5549 12.0256 23.0085 10.5446 23.0121 8.75206C23.0121 6.98539 21.6033 5.51945 19.7559 5.24243" stroke="#130F26" stroke-width="1.5" stroke-linecap="round" stroke-linejoin="round"/>
<path d="M22.1577 16.4187C23.9862 16.6677 25.263 17.2541 25.263 18.4613C25.263 19.2924 24.6617 19.8313 23.6903 20.1687" stroke="#130F26" stroke-width="1.5" stroke-linecap="round" stroke-linejoin="round"/>
</svg>
