<svg width="52" height="52" viewBox="0 0 52 52" fill="none" xmlns="http://www.w3.org/2000/svg">
<path d="M21.9976 12.037C22.1079 12.2616 22.1808 12.5022 22.2134 12.7494L22.8167 21.7193V21.7193L23.1162 26.2277C23.1193 26.6913 23.192 27.152 23.332 27.5948C23.6937 28.4539 24.5638 29 25.5104 28.9619L39.9345 28.0184C40.5591 28.0081 41.1623 28.2417 41.6113 28.6678C41.9855 29.0229 42.227 29.4874 42.3031 29.9871L42.3287 30.2905C41.7318 38.5557 35.6614 45.4495 27.4134 47.229C19.1653 49.0086 10.7073 45.2494 6.63146 37.9923C5.45642 35.884 4.72249 33.5666 4.47275 31.1762C4.36841 30.4685 4.32247 29.7538 4.33537 29.0389C4.32249 20.1776 10.6328 12.5168 19.466 10.6699C20.5291 10.5044 21.5713 11.0672 21.9976 12.037Z" fill="#97A5EB"/>
<path opacity="0.4" d="M27.8848 4.33515C37.7646 4.5865 46.0682 11.6909 47.6665 21.26L47.6512 21.3306V21.3306L47.6076 21.4333L47.6137 21.7152C47.591 22.0886 47.4469 22.4479 47.1984 22.7381C46.9396 23.0404 46.586 23.2463 46.1966 23.3262L45.9591 23.3588L29.3174 24.437C28.7639 24.4916 28.2127 24.3131 27.8011 23.9459C27.458 23.64 27.2387 23.2269 27.1768 22.7818L26.0597 6.16434C26.0403 6.10815 26.0403 6.04724 26.0597 5.99105C26.075 5.533 26.2766 5.10003 26.6196 4.78887C26.9625 4.47772 27.4182 4.31431 27.8848 4.33515Z" fill="#FFCC91"/>
</svg>
